<?xml version="1.0" standalone="no"?>
<!DOCTYPE svg PUBLIC "-//W3C//DTD SVG 20010904//EN"
 "http://www.w3.org/TR/2001/REC-SVG-20010904/DTD/svg10.dtd">
<svg version="1.0" xmlns="http://www.w3.org/2000/svg"
 width="1200.000000pt" height="1200.000000pt" viewBox="0 0 1200.000000 1200.000000"
 preserveAspectRatio="xMidYMid meet">

<g transform="translate(0.000000,1200.000000) scale(0.100000,-0.100000)"
fill="#000000" stroke="none">
<path d="M4720 7483 c0 -16 -7 -102 -14 -193 -8 -91 -14 -166 -13 -167 1 -1
25 -5 53 -8 l51 -7 7 80 7 80 57 -5 c31 -3 58 -6 58 -7 1 0 -1 -35 -5 -77 l-6
-77 50 -5 c27 -3 51 -4 52 -3 3 3 33 349 33 377 0 13 -11 18 -47 21 -27 2 -51
-1 -55 -6 -4 -6 -8 -37 -8 -69 0 -67 -7 -73 -76 -62 l-47 7 7 74 7 74 -56 0
c-53 0 -55 -1 -55 -27z"/>
<path d="M4045 7408 c-71 -22 -132 -42 -134 -44 -5 -4 18 -84 23 -84 2 0 23 7
47 15 23 9 46 12 50 8 3 -5 24 -65 45 -135 20 -70 40 -132 44 -138 8 -12 100
6 100 20 0 5 -18 66 -40 137 -22 70 -41 134 -43 142 -1 8 16 19 46 28 26 7 47
17 47 22 0 27 -24 71 -38 70 -10 0 -75 -19 -147 -41z"/>
<path d="M5252 7252 c-34 -98 -62 -183 -62 -188 0 -5 54 -28 121 -51 l120 -43
15 35 c8 19 14 38 14 43 0 4 -32 18 -71 31 -71 23 -71 23 -65 54 3 17 8 33 11
35 3 4 59 -13 106 -33 12 -5 19 2 28 26 18 51 14 57 -44 75 -55 18 -65 32 -46
63 7 11 19 10 72 -8 35 -11 66 -21 70 -21 12 0 32 71 23 80 -5 4 -54 22 -109
40 -55 18 -105 35 -111 37 -6 2 -36 -70 -72 -175z"/>
<path d="M3615 7219 c-98 -53 -165 -94 -165 -100 0 -7 138 -242 186 -316 l14
-22 45 26 44 27 -21 36 c-12 19 -28 45 -36 57 -12 19 -11 23 5 32 15 7 32 1
81 -30 l63 -40 51 30 52 29 -31 19 c-17 10 -52 30 -76 45 -45 26 -45 27 -35
62 9 29 8 43 -7 77 -10 22 -30 49 -43 60 -27 21 -94 25 -127 8z m70 -103 c19
-29 10 -54 -29 -80 -25 -16 -26 -16 -52 25 -14 22 -24 42 -22 44 9 10 64 35
75 35 7 0 20 -11 28 -24z"/>
<path d="M5683 7066 l-152 -134 39 -26 c49 -32 51 -32 80 -1 13 14 27 25 31
25 5 0 28 -12 53 -27 l44 -27 -14 -39 c-8 -22 -14 -41 -14 -42 0 -5 91 -57 94
-53 2 1 24 84 50 183 26 99 49 187 52 196 3 12 -11 26 -46 48 -28 17 -54 31
-58 31 -4 -1 -75 -61 -159 -134z m146 -37 c-12 -35 -23 -66 -25 -67 -1 -2 -16
4 -33 14 l-31 18 52 53 c28 29 53 51 55 49 2 -1 -7 -31 -18 -67z"/>
<path d="M6076 6784 l-139 -136 36 -36 36 -36 45 42 c73 67 90 51 56 -54 l-22
-66 38 -39 c21 -21 41 -36 44 -31 3 4 16 40 29 80 l22 72 41 0 c46 0 91 28
113 70 19 37 18 67 -3 106 -20 37 -135 164 -148 164 -5 -1 -72 -62 -148 -136z
m214 -65 c0 -16 -35 -49 -51 -49 -4 0 -22 12 -39 26 l-31 27 32 33 33 34 28
-27 c15 -15 28 -35 28 -44z"/>
<path d="M3141 6866 l-44 -45 43 -83 c57 -111 142 -272 147 -277 2 -3 20 12
40 32 l37 36 -22 39 -21 39 38 37 38 37 37 -22 38 -22 39 39 38 39 -176 95
c-96 52 -179 96 -182 98 -4 1 -26 -18 -50 -42z m129 -104 l60 -38 -23 -22
c-13 -12 -26 -22 -29 -22 -3 0 -22 27 -41 60 -20 33 -34 60 -32 60 2 0 31 -17
65 -38z"/>
<path d="M6528 6504 c-34 -18 -34 -19 -4 -70 l23 -41 -133 -77 -134 -77 14
-27 c37 -71 29 -71 167 8 68 40 127 74 131 77 4 2 19 -17 33 -42 l27 -45 39
22 39 22 -18 30 c-10 17 -45 77 -77 134 -33 56 -64 102 -70 102 -5 -1 -22 -8
-37 -16z"/>
<path d="M2658 6155 c-14 -28 -18 -48 -12 -54 12 -11 345 -163 349 -159 2 2
15 30 30 63 15 33 38 84 51 112 l24 53 -30 15 c-16 8 -34 15 -40 15 -5 0 -24
-29 -42 -64 l-31 -64 -41 18 c-23 10 -85 39 -139 64 l-97 46 -22 -45z"/>
<path d="M2857 5803 c-3 -4 -11 -36 -17 -70 -7 -35 -16 -63 -21 -63 -5 0 -70
14 -146 30 -75 17 -140 30 -143 30 -11 0 -29 -94 -20 -100 5 -3 90 -23 190
-44 139 -30 184 -36 189 -27 10 15 55 230 50 236 -9 9 -77 16 -82 8z"/>
<path d="M2660 5356 l-185 -62 -3 -46 c-2 -26 1 -56 7 -66 7 -13 63 -33 200
-72 105 -29 193 -51 197 -48 9 10 -8 99 -20 103 -6 2 -23 6 -38 9 -26 6 -28
10 -28 61 l0 54 40 11 40 11 0 54 c0 38 -4 55 -12 54 -7 0 -96 -29 -198 -63z
m50 -121 c0 -19 -5 -35 -11 -35 -12 0 -98 20 -119 27 -12 4 84 37 123 42 4 1
7 -15 7 -34z"/>
<path d="M2665 4887 c-88 -11 -161 -21 -163 -22 -8 -7 22 -95 32 -95 12 0 214
34 266 45 14 3 -33 -26 -105 -64 l-130 -69 2 -38 c2 -21 7 -42 11 -46 8 -8
210 5 277 18 17 3 -30 -22 -104 -55 -73 -33 -135 -62 -138 -64 -6 -7 20 -97
29 -97 6 0 347 167 355 174 3 3 -32 115 -38 120 -5 5 -150 -8 -219 -20 -23 -4
1 12 78 53 62 32 112 62 112 66 0 5 -7 33 -16 63 -15 53 -16 54 -52 53 -20 -1
-109 -11 -197 -22z"/>
<path d="M5400 4815 c0 -11 11 -15 40 -15 l40 0 0 -505 0 -505 -40 0 c-29 0
-40 -4 -40 -15 0 -13 22 -15 163 -13 l162 3 5 33 5 34 22 -30 c31 -42 80 -56
173 -49 119 8 187 52 230 150 42 95 42 309 0 405 -44 98 -112 141 -223 142
-80 0 -128 -19 -160 -62 l-22 -30 -5 234 -5 233 -172 3 c-150 2 -173 0 -173
-13z m500 -460 c12 -24 15 -74 15 -250 0 -242 -8 -283 -60 -307 -22 -10 -30
-8 -53 9 -48 36 -52 53 -52 271 0 222 6 251 56 291 38 30 75 24 94 -14z"/>
<path d="M7698 4794 c-78 -42 -77 -188 2 -229 42 -22 128 -19 168 5 38 24 52
54 52 118 0 54 -18 85 -60 107 -37 19 -127 19 -162 -1z"/>
<path d="M8435 4758 c-3 -7 -83 -224 -179 -483 l-174 -470 -36 -3 c-23 -2 -36
-8 -36 -18 0 -11 21 -14 110 -14 91 0 110 3 110 15 0 11 -12 15 -51 15 -37 0
-50 4 -47 13 3 6 26 74 53 150 l48 138 140 -3 140 -3 48 -138 c27 -77 49 -143
49 -147 0 -5 -21 -10 -47 -12 -26 -2 -48 -9 -51 -15 -3 -10 48 -13 232 -13
203 0 236 2 236 15 0 10 -10 15 -33 15 l-32 0 -164 448 c-90 246 -170 464
-179 485 -14 37 -14 37 -73 37 -39 0 -61 -4 -64 -12z m5 -443 c29 -88 55 -166
58 -172 3 -10 -26 -13 -123 -13 -97 0 -126 3 -123 13 80 229 124 345 129 339
4 -4 30 -79 59 -167z"/>
<path d="M4230 4745 c0 -11 11 -15 40 -15 l40 0 0 -465 0 -465 -40 0 c-29 0
-40 -4 -40 -15 0 -12 17 -15 95 -15 78 0 95 3 95 15 0 10 -11 15 -35 15 l-35
0 1 433 c0 237 2 428 5 422 2 -5 51 -183 109 -395 58 -212 112 -409 120 -437
l16 -53 89 0 c76 0 89 3 94 18 2 9 48 204 101 432 52 228 100 424 105 435 5
12 9 -151 9 -417 l1 -438 -40 0 c-29 0 -40 -4 -40 -15 0 -13 31 -15 215 -15
184 0 215 2 215 15 0 11 -11 15 -40 15 l-40 0 0 465 0 465 40 0 c29 0 40 4 40
15 0 13 -28 15 -189 15 l-189 0 -35 -147 c-19 -82 -57 -241 -83 -355 -27 -115
-51 -205 -54 -200 -4 4 -47 163 -96 354 l-89 348 -192 0 c-165 0 -193 -2 -193
-15z"/>
<path d="M9900 4666 l-125 -32 -3 -92 -3 -92 -34 0 c-24 0 -35 -5 -35 -15 0
-10 11 -15 35 -15 l35 0 0 -235 c0 -255 8 -320 47 -366 38 -44 77 -61 162 -66
95 -7 151 8 200 52 51 47 92 165 56 165 -9 0 -15 -9 -15 -22 -1 -35 -35 -103
-61 -122 -30 -21 -83 -21 -100 1 -11 12 -15 78 -17 304 l-3 288 92 3 c63 2 94
7 97 16 3 9 -20 12 -92 12 l-96 0 0 125 c0 69 -3 125 -7 124 -5 0 -64 -15
-133 -33z"/>
<path d="M7135 4454 c-91 -33 -144 -118 -145 -227 0 -141 54 -190 286 -257 92
-26 124 -51 124 -96 0 -20 -8 -42 -19 -53 -46 -46 -164 -50 -243 -10 -45 23
-92 84 -116 151 -9 26 -20 48 -24 48 -5 0 -8 -58 -8 -130 0 -71 3 -130 6 -130
3 0 15 12 26 26 23 28 28 28 118 -5 110 -41 254 -19 321 48 39 38 69 116 69
176 0 57 -28 127 -66 166 -39 40 -80 59 -228 106 -107 33 -137 62 -117 110 15
37 42 53 100 60 91 11 178 -43 227 -139 13 -26 29 -48 34 -48 6 0 10 45 10
110 0 82 -3 110 -13 110 -7 0 -18 -9 -25 -20 -15 -25 -32 -25 -102 0 -65 23
-158 25 -215 4z"/>
<path d="M9455 4451 c-44 -20 -66 -41 -89 -86 l-16 -30 0 58 0 57 -176 0
c-136 0 -175 -3 -172 -12 3 -7 21 -14 41 -16 l37 -3 0 -309 0 -309 -37 -3
c-20 -2 -38 -9 -41 -15 -3 -10 46 -13 223 -13 177 0 226 3 223 13 -3 6 -25 13
-51 15 l-47 3 0 224 c0 199 2 231 20 276 26 70 64 109 106 109 39 0 48 -11 39
-50 -5 -25 -12 -30 -36 -30 -28 0 -29 -1 -29 -49 0 -70 29 -102 96 -108 70 -7
107 14 129 72 58 150 -74 273 -220 206z"/>
<path d="M6490 4445 c-68 -20 -140 -65 -176 -112 -105 -138 -89 -386 32 -493
53 -46 112 -70 197 -79 189 -21 317 38 361 165 12 36 12 43 1 48 -9 3 -18 -8
-26 -31 -28 -87 -127 -151 -214 -140 -97 14 -134 72 -142 227 l-6 100 202 0
201 0 0 48 c0 114 -59 215 -150 255 -60 27 -204 33 -280 12z m136 -23 c26 -17
34 -56 34 -156 l0 -106 -71 0 -72 0 6 99 c5 97 22 153 49 164 19 8 42 8 54 -1z"/>
<path d="M7560 4435 c0 -11 12 -15 45 -15 l45 0 0 -310 0 -310 -40 0 c-29 0
-40 -4 -40 -15 0 -13 30 -15 210 -15 180 0 210 2 210 15 0 11 -11 15 -40 15
l-40 0 0 325 0 325 -175 0 c-149 0 -175 -2 -175 -15z"/>
</g>
</svg>
